<svg xmlns="http://www.w3.org/2000/svg" viewBox="0 0 16 16" width="16" height="16">
  <!-- Simplified sugarcane for favicon -->
  <rect x="4" y="2" width="2" height="12" fill="#4CAF50" rx="1"/>
  <rect x="7" y="1" width="2" height="14" fill="#66BB6A" rx="1"/>
  <rect x="10" y="2" width="2" height="12" fill="#4CAF50" rx="1"/>
  
  <!-- Nodes -->
  <circle cx="5" cy="4" r="1" fill="#2E7D32"/>
  <circle cx="5" cy="8" r="1" fill="#2E7D32"/>
  <circle cx="5" cy="12" r="1" fill="#2E7D32"/>
  
  <circle cx="8" cy="4" r="1" fill="#388E3C"/>
  <circle cx="8" cy="8" r="1" fill="#388E3C"/>
  <circle cx="8" cy="12" r="1" fill="#388E3C"/>
  
  <circle cx="11" cy="4" r="1" fill="#2E7D32"/>
  <circle cx="11" cy="8" r="1" fill="#2E7D32"/>
  <circle cx="11" cy="12" r="1" fill="#2E7D32"/>
  
  <!-- Simple leaves -->
  <path d="M4 3 Q2 2 1 3 Q2 4 4 3" fill="#689F38"/>
  <path d="M12 3 Q14 2 15 3 Q14 4 12 3" fill="#689F38"/>
</svg>