<svg xmlns="http://www.w3.org/2000/svg" viewBox="0 0 32 32" width="32" height="32">
  <!-- Sugarcane stalks -->
  <rect x="8" y="4" width="3" height="24" fill="#4CAF50" rx="1.5"/>
  <rect x="13" y="2" width="3" height="26" fill="#66BB6A" rx="1.5"/>
  <rect x="18" y="4" width="3" height="24" fill="#4CAF50" rx="1.5"/>
  
  <!-- Sugarcane nodes/joints -->
  <circle cx="9.5" cy="8" r="1.8" fill="#2E7D32"/>
  <circle cx="9.5" cy="14" r="1.8" fill="#2E7D32"/>
  <circle cx="9.5" cy="20" r="1.8" fill="#2E7D32"/>
  
  <circle cx="14.5" cy="7" r="1.8" fill="#388E3C"/>
  <circle cx="14.5" cy="13" r="1.8" fill="#388E3C"/>
  <circle cx="14.5" cy="19" r="1.8" fill="#388E3C"/>
  <circle cx="14.5" cy="25" r="1.8" fill="#388E3C"/>
  
  <circle cx="19.5" cy="8" r="1.8" fill="#2E7D32"/>
  <circle cx="19.5" cy="14" r="1.8" fill="#2E7D32"/>
  <circle cx="19.5" cy="20" r="1.8" fill="#2E7D32"/>
  
  <!-- Leaves -->
  <path d="M8 6 Q6 4 4 6 Q6 8 8 6" fill="#689F38"/>
  <path d="M11 10 Q13 8 15 10 Q13 12 11 10" fill="#689F38"/>
  <path d="M21 6 Q23 4 25 6 Q23 8 21 6" fill="#689F38"/>
  <path d="M16 4 Q18 2 20 4 Q18 6 16 4" fill="#689F38"/>
</svg>